<?xml version="1.0" standalone="no"?>
<!DOCTYPE svg PUBLIC "-//W3C//DTD SVG 20010904//EN"
 "http://www.w3.org/TR/2001/REC-SVG-20010904/DTD/svg10.dtd">
<svg version="1.0" xmlns="http://www.w3.org/2000/svg"
 width="662.000000pt" height="662.000000pt" viewBox="0 0 662.000000 662.000000"
 preserveAspectRatio="xMidYMid meet">
<metadata>
Created by potrace 1.11, written by Peter Selinger 2001-2013
</metadata>
<g transform="translate(0.000000,662.000000) scale(0.100000,-0.100000)"
fill="#000000" stroke="none">
<path d="M1141 6582 c-91 -101 -980 -992 -990 -992 -7 0 -11 -20 -11 -49 l0
-48 467 -459 c256 -252 499 -492 539 -531 67 -68 98 -86 106 -63 2 5 247 254
546 553 298 299 542 552 542 561 0 9 -6 16 -12 16 -7 1 -251 237 -543 525
-524 520 -530 525 -570 525 -33 0 -46 -7 -74 -38z"/>
<path d="M3311 5362 c-544 -1 -768 -5 -778 -13 -11 -9 -13 -144 -13 -755 l0
-744 -730 0 c-708 1 -732 0 -755 -19 l-25 -19 2 -1532 3 -1533 27 -20 c21 -16
30 -18 41 -9 20 17 2974 17 2994 0 10 -8 17 -8 25 0 9 9 209 12 769 12 458 0
760 4 764 9 4 7 13 2299 12 3051 0 8 -1 360 -3 782 -4 738 -5 768 -23 777 -21
12 -1071 18 -2310 13z m719 -812 l0 -700 -705 0 -705 0 0 693 c0 382 3 697 7
700 3 4 321 7 705 7 l698 0 0 -700z m1510 0 l0 -700 -705 0 -705 0 0 700 0
700 705 0 705 0 0 -700z m-3030 -1505 l0 -705 -697 2 -698 3 -3 703 -2 702
700 0 700 0 0 -705z m851 695 l669 0 0 -700 0 -700 -700 0 -700 0 0 699 c0
658 1 700 18 704 9 3 23 3 30 1 8 -2 315 -4 683 -4z m2177 -697 l-3 -698 -700
0 -700 0 -3 698 -2 697 705 0 705 0 -2 -697z m-3028 -1513 l0 -700 -700 0
-700 0 0 700 0 700 700 0 700 0 0 -700z m1520 0 l0 -700 -700 0 -700 0 0 700
0 700 700 0 700 0 0 -700z m1510 0 l0 -700 -705 0 -705 0 0 700 0 700 705 0
705 0 0 -700z"/>
</g>
</svg>
